<?xml version="1.0" standalone="no"?>
<!DOCTYPE svg PUBLIC "-//W3C//DTD SVG 1.1//EN"
"http://www.w3.org/Graphics/SVG/1.1/DTD/svg11.dtd">

<svg width="888" height="692" view_box="0 0 888 692"
xmlns="http://www.w3.org/2000/svg"
xmlns:link="http://www.w3.org/1999/xlink">\n\n<desc>Généré par Mocodo 2.3.7 le Sun, 07 Nov 2021 08:11:29</desc>

<rect id="frame" x="0" y="0" width="888" height="692" fill="#f5f5f5" stroke="none" stroke-width="0"/>

<!-- Association Contient -->
<line x1="182" y1="51" x2="182" y2="143" stroke="#bf812d" stroke-width="2"/>
<text x="187.0" y="110" fill="#01665e" font-family="Verdana" font-size="12">0,1</text>
<line x1="301" y1="261" x2="182" y2="143" stroke="#bf812d" stroke-width="2"/>
<text x="230" y="227.340941212" fill="#01665e" font-family="Verdana" font-size="12">1,N</text>
<g id="association-Contient">
	<path d="M 201 118 a 14 14 90 0 1 14 14 V 143 h -66 V 132 a 14 14 90 0 1 14 -14" fill="#dfc27d" stroke="#dfc27d" stroke-width="0"/>
	<path d="M 215 143.0 v 11 a 14 14 90 0 1 -14 14 H 163 a 14 14 90 0 1 -14 -14 V 143.0 H 66" fill="#f6e8c3" stroke="#f6e8c3" stroke-width="0"/>
	<rect x="149" y="118" width="66" height="50" fill="none" rx="14" stroke="#bf812d" stroke-width="2"/>
	<line x1="149" y1="143" x2="215" y2="143" stroke="#bf812d" stroke-width="1"/>
	<text x="156" y="135.7" fill="#000000" font-family="Verdana" font-size="12">Contient</text>
</g>

<!-- Association Suivre -->
<line x1="301" y1="261" x2="475" y2="143" stroke="#bf812d" stroke-width="2"/>
<text x="350" y="242.973385301" fill="#01665e" font-family="Verdana" font-size="12">0,1</text>
<line x1="667" y1="51" x2="475" y2="143" stroke="#bf812d" stroke-width="2"/>
<text x="596" y="67.83311399" fill="#01665e" font-family="Verdana" font-size="12">1,N</text>
<g id="association-Suivre">
	<path d="M 488 118 a 14 14 90 0 1 14 14 V 143 h -54 V 132 a 14 14 90 0 1 14 -14" fill="#dfc27d" stroke="#dfc27d" stroke-width="0"/>
	<path d="M 502 143.0 v 11 a 14 14 90 0 1 -14 14 H 462 a 14 14 90 0 1 -14 -14 V 143.0 H 54" fill="#f6e8c3" stroke="#f6e8c3" stroke-width="0"/>
	<rect x="448" y="118" width="54" height="50" fill="none" rx="14" stroke="#bf812d" stroke-width="2"/>
	<line x1="448" y1="143" x2="502" y2="143" stroke="#bf812d" stroke-width="1"/>
	<text x="455" y="135.7" fill="#000000" font-family="Verdana" font-size="12">Suivre</text>
</g>

<!-- Association Appartient -->
<line x1="667" y1="261" x2="820" y2="143" stroke="#bf812d" stroke-width="2"/>
<text x="725" y="231.334045287" fill="#01665e" font-family="Verdana" font-size="12">1,1</text>
<line x1="725" y1="233.334045287" x2="746" y2="233.334045287" stroke="#01665e" stroke-width="1"/>
<line x1="820" y1="51" x2="820" y2="143" stroke="#bf812d" stroke-width="2"/>
<text x="825.0" y="102" fill="#01665e" font-family="Verdana" font-size="12">1,N</text>
<g id="association-Appartient">
	<path d="M 845 118 a 14 14 90 0 1 14 14 V 143 h -78 V 132 a 14 14 90 0 1 14 -14" fill="#dfc27d" stroke="#dfc27d" stroke-width="0"/>
	<path d="M 859 143.0 v 11 a 14 14 90 0 1 -14 14 H 795 a 14 14 90 0 1 -14 -14 V 143.0 H 78" fill="#f6e8c3" stroke="#f6e8c3" stroke-width="0"/>
	<rect x="781" y="118" width="78" height="50" fill="none" rx="14" stroke="#bf812d" stroke-width="2"/>
	<line x1="781" y1="143" x2="859" y2="143" stroke="#bf812d" stroke-width="1"/>
	<text x="788" y="135.7" fill="#000000" font-family="Verdana" font-size="12">Appartient</text>
</g>

<!-- Association Compose -->
<line x1="301" y1="51" x2="301" y2="143" stroke="#bf812d" stroke-width="2"/>
<text x="306.0" y="110" fill="#01665e" font-family="Verdana" font-size="12">0,1</text>
<line x1="301" y1="261" x2="301" y2="143" stroke="#bf812d" stroke-width="2"/>
<text x="306.0" y="185" fill="#01665e" font-family="Verdana" font-size="12">1,N</text>
<g id="association-Compose">
	<path d="M 323 118 a 14 14 90 0 1 14 14 V 143 h -72 V 132 a 14 14 90 0 1 14 -14" fill="#dfc27d" stroke="#dfc27d" stroke-width="0"/>
	<path d="M 337 143.0 v 11 a 14 14 90 0 1 -14 14 H 279 a 14 14 90 0 1 -14 -14 V 143.0 H 72" fill="#f6e8c3" stroke="#f6e8c3" stroke-width="0"/>
	<rect x="265" y="118" width="72" height="50" fill="none" rx="14" stroke="#bf812d" stroke-width="2"/>
	<line x1="265" y1="143" x2="337" y2="143" stroke="#bf812d" stroke-width="1"/>
	<text x="272" y="135.7" fill="#000000" font-family="Verdana" font-size="12">Compose</text>
</g>

<!-- Association Recette_contient_Ingredient -->
<line x1="667" y1="261" x2="475" y2="261" stroke="#bf812d" stroke-width="2"/>
<text x="587" y="253.0" fill="#01665e" font-family="Verdana" font-size="12">1,N</text>
<line x1="301" y1="261" x2="475" y2="261" stroke="#bf812d" stroke-width="2"/>
<text x="350" y="278.0" fill="#01665e" font-family="Verdana" font-size="12">1,N</text>
<g id="association-Recette_contient_Ingredient">
	<path d="M 555 219 a 14 14 90 0 1 14 14 V 244 h -188 V 233 a 14 14 90 0 1 14 -14" fill="#dfc27d" stroke="#dfc27d" stroke-width="0"/>
	<path d="M 569 244.0 v 45 a 14 14 90 0 1 -14 14 H 395 a 14 14 90 0 1 -14 -14 V 244.0 H 188" fill="#f6e8c3" stroke="#f6e8c3" stroke-width="0"/>
	<rect x="381" y="219" width="188" height="84" fill="none" rx="14" stroke="#bf812d" stroke-width="2"/>
	<line x1="381" y1="244" x2="569" y2="244" stroke="#bf812d" stroke-width="1"/>
	<text x="388" y="236.7" fill="#000000" font-family="Verdana" font-size="12">Recette_contient_Ingredient</text>
	<text x="388" y="261.8" fill="#000000" font-family="Verdana" font-size="12">quantite_unit</text>
	<text x="388" y="278.8" fill="#000000" font-family="Verdana" font-size="12">quantite_gramme</text>
	<text x="388" y="295.8" fill="#000000" font-family="Verdana" font-size="12">nbr_personne</text>
</g>

<!-- Association Interdit -->
<line x1="667" y1="261" x2="667" y2="143" stroke="#bf812d" stroke-width="2"/>
<text x="640.0" y="202" fill="#01665e" font-family="Verdana" font-size="12">1,N</text>
<line x1="667" y1="51" x2="667" y2="143" stroke="#bf812d" stroke-width="2"/>
<text x="672.0" y="102" fill="#01665e" font-family="Verdana" font-size="12">1,N</text>
<g id="association-Interdit">
	<path d="M 683 118 a 14 14 90 0 1 14 14 V 143 h -60 V 132 a 14 14 90 0 1 14 -14" fill="#dfc27d" stroke="#dfc27d" stroke-width="0"/>
	<path d="M 697 143.0 v 11 a 14 14 90 0 1 -14 14 H 651 a 14 14 90 0 1 -14 -14 V 143.0 H 60" fill="#f6e8c3" stroke="#f6e8c3" stroke-width="0"/>
	<rect x="637" y="118" width="60" height="50" fill="none" rx="14" stroke="#bf812d" stroke-width="2"/>
	<line x1="637" y1="143" x2="697" y2="143" stroke="#bf812d" stroke-width="1"/>
	<text x="644" y="135.7" fill="#000000" font-family="Verdana" font-size="12">Interdit</text>
	<text x="644" y="160.8" fill="#000000" font-family="Verdana" font-size="12">interdit</text>
</g>

<!-- Association Auteur_recette -->
<line x1="301" y1="261" x2="301" y2="379" stroke="#bf812d" stroke-width="2"/>
<text x="306.0" y="346" fill="#01665e" font-family="Verdana" font-size="12">0,1</text>
<line x1="475" y1="506" x2="301" y2="379" stroke="#bf812d" stroke-width="2"/>
<text x="395" y="478.787844624" fill="#01665e" font-family="Verdana" font-size="12">1,N</text>
<g id="association-Auteur_recette">
	<path d="M 340 354 a 14 14 90 0 1 14 14 V 379 h -106 V 368 a 14 14 90 0 1 14 -14" fill="#dfc27d" stroke="#dfc27d" stroke-width="0"/>
	<path d="M 354 379.0 v 11 a 14 14 90 0 1 -14 14 H 262 a 14 14 90 0 1 -14 -14 V 379.0 H 106" fill="#f6e8c3" stroke="#f6e8c3" stroke-width="0"/>
	<rect x="248" y="354" width="106" height="50" fill="none" rx="14" stroke="#bf812d" stroke-width="2"/>
	<line x1="248" y1="379" x2="354" y2="379" stroke="#bf812d" stroke-width="1"/>
	<text x="255" y="371.7" fill="#000000" font-family="Verdana" font-size="12">Auteur_recette</text>
</g>

<!-- Association Menu -->
<line x1="301" y1="261" x2="182" y2="379" stroke="#bf812d" stroke-width="2"/>
<text x="230" y="303.659058788" fill="#01665e" font-family="Verdana" font-size="12">1,N</text>
<line x1="475" y1="506" x2="182" y2="379" stroke="#bf812d" stroke-width="2"/>
<text x="395" y="496.631966699" fill="#01665e" font-family="Verdana" font-size="12">1,N</text>
<g id="association-Menu">
	<path d="M 202 345 a 14 14 90 0 1 14 14 V 370 h -68 V 359 a 14 14 90 0 1 14 -14" fill="#dfc27d" stroke="#dfc27d" stroke-width="0"/>
	<path d="M 216 370.0 v 29 a 14 14 90 0 1 -14 14 H 162 a 14 14 90 0 1 -14 -14 V 370.0 H 68" fill="#f6e8c3" stroke="#f6e8c3" stroke-width="0"/>
	<rect x="148" y="345" width="68" height="68" fill="none" rx="14" stroke="#bf812d" stroke-width="2"/>
	<line x1="148" y1="370" x2="216" y2="370" stroke="#bf812d" stroke-width="1"/>
	<text x="165" y="362.7" fill="#000000" font-family="Verdana" font-size="12">Menu</text>
	<text x="155" y="387.8" fill="#000000" font-family="Verdana" font-size="12">id_menu</text>
	<text x="155" y="404.8" fill="#000000" font-family="Verdana" font-size="12">date</text>
</g>

<!-- Association Dispose -->
<line x1="667" y1="261" x2="475" y2="379" stroke="#bf812d" stroke-width="2"/>
<text x="587" y="290.322078203" fill="#01665e" font-family="Verdana" font-size="12">1,N</text>
<line x1="475" y1="506" x2="475" y2="379" stroke="#bf812d" stroke-width="2"/>
<text x="480.0" y="430" fill="#01665e" font-family="Verdana" font-size="12">1,N</text>
<g id="association-Dispose">
	<path d="M 501 345 a 14 14 90 0 1 14 14 V 370 h -80 V 359 a 14 14 90 0 1 14 -14" fill="#dfc27d" stroke="#dfc27d" stroke-width="0"/>
	<path d="M 515 370.0 v 29 a 14 14 90 0 1 -14 14 H 449 a 14 14 90 0 1 -14 -14 V 370.0 H 80" fill="#f6e8c3" stroke="#f6e8c3" stroke-width="0"/>
	<rect x="435" y="345" width="80" height="68" fill="none" rx="14" stroke="#bf812d" stroke-width="2"/>
	<line x1="435" y1="370" x2="515" y2="370" stroke="#bf812d" stroke-width="1"/>
	<text x="451" y="362.7" fill="#000000" font-family="Verdana" font-size="12">Dispose</text>
	<text x="442" y="387.8" fill="#000000" font-family="Verdana" font-size="12">id_dispose</text>
	<text x="442" y="404.8" fill="#000000" font-family="Verdana" font-size="12">date</text>
</g>

<!-- Association Consiste -->
<line x1="63" y1="261" x2="182" y2="261" stroke="#bf812d" stroke-width="2"/>
<text x="122" y="278.0" fill="#01665e" font-family="Verdana" font-size="12">1,1</text>
<line x1="122" y1="280.0" x2="143" y2="280.0" stroke="#01665e" stroke-width="1"/>
<line x1="301" y1="261" x2="182" y2="261" stroke="#bf812d" stroke-width="2"/>
<text x="230" y="278.0" fill="#01665e" font-family="Verdana" font-size="12">1,N</text>
<g id="association-Consiste">
	<path d="M 201 236 a 14 14 90 0 1 14 14 V 261 h -66 V 250 a 14 14 90 0 1 14 -14" fill="#dfc27d" stroke="#dfc27d" stroke-width="0"/>
	<path d="M 215 261.0 v 11 a 14 14 90 0 1 -14 14 H 163 a 14 14 90 0 1 -14 -14 V 261.0 H 66" fill="#f6e8c3" stroke="#f6e8c3" stroke-width="0"/>
	<rect x="149" y="236" width="66" height="50" fill="none" rx="14" stroke="#bf812d" stroke-width="2"/>
	<line x1="149" y1="261" x2="215" y2="261" stroke="#bf812d" stroke-width="1"/>
	<text x="156" y="253.7" fill="#000000" font-family="Verdana" font-size="12">Consiste</text>
</g>

<!-- Association Auteur_ingredient -->
<line x1="667" y1="261" x2="667" y2="379" stroke="#bf812d" stroke-width="2"/>
<text x="672.0" y="329" fill="#01665e" font-family="Verdana" font-size="12">0,1</text>
<line x1="475" y1="506" x2="667" y2="379" stroke="#bf812d" stroke-width="2"/>
<text x="533" y="482.86828017" fill="#01665e" font-family="Verdana" font-size="12">1,N</text>
<g id="association-Auteur_ingredient">
	<path d="M 715 354 a 14 14 90 0 1 14 14 V 379 h -124 V 368 a 14 14 90 0 1 14 -14" fill="#dfc27d" stroke="#dfc27d" stroke-width="0"/>
	<path d="M 729 379.0 v 11 a 14 14 90 0 1 -14 14 H 619 a 14 14 90 0 1 -14 -14 V 379.0 H 124" fill="#f6e8c3" stroke="#f6e8c3" stroke-width="0"/>
	<rect x="605" y="354" width="124" height="50" fill="none" rx="14" stroke="#bf812d" stroke-width="2"/>
	<line x1="605" y1="379" x2="729" y2="379" stroke="#bf812d" stroke-width="1"/>
	<text x="612" y="371.7" fill="#000000" font-family="Verdana" font-size="12">Auteur_ingredient</text>
</g>

<!-- Association Liste_d_achat -->
<line x1="667" y1="261" x2="820" y2="379" stroke="#bf812d" stroke-width="2"/>
<text x="725" y="299.665954713" fill="#01665e" font-family="Verdana" font-size="12">1,N</text>
<line x1="475" y1="506" x2="820" y2="379" stroke="#bf812d" stroke-width="2"/>
<text x="533" y="500.611835924" fill="#01665e" font-family="Verdana" font-size="12">1,N</text>
<g id="association-Liste_d_achat">
	<path d="M 865 345 a 14 14 90 0 1 14 14 V 370 h -118 V 359 a 14 14 90 0 1 14 -14" fill="#dfc27d" stroke="#dfc27d" stroke-width="0"/>
	<path d="M 879 370.0 v 29 a 14 14 90 0 1 -14 14 H 775 a 14 14 90 0 1 -14 -14 V 370.0 H 118" fill="#f6e8c3" stroke="#f6e8c3" stroke-width="0"/>
	<rect x="761" y="345" width="118" height="68" fill="none" rx="14" stroke="#bf812d" stroke-width="2"/>
	<line x1="761" y1="370" x2="879" y2="370" stroke="#bf812d" stroke-width="1"/>
	<text x="777" y="362.7" fill="#000000" font-family="Verdana" font-size="12">Liste_d_achat</text>
	<text x="768" y="387.8" fill="#000000" font-family="Verdana" font-size="12">id_Liste_d_achat</text>
	<text x="768" y="404.8" fill="#000000" font-family="Verdana" font-size="12">date_liste:</text>
</g>

<!-- Entity Etape -->
<g id="entity-Etape">
	<g id="frame-Etape">
		<rect x="261" y="9" width="80" height="25" fill="#80cdc1" stroke="#80cdc1" stroke-width="0"/>
		<rect x="261" y="34.0" width="80" height="59" fill="#c7eae5" stroke="#c7eae5" stroke-width="0"/>
		<rect x="261" y="9" width="80" height="84" fill="none" stroke="#35978f" stroke-width="2"/>
		<line x1="261" y1="34" x2="341" y2="34" stroke="#35978f" stroke-width="1"/>
	</g>
	<text x="283" y="26.7" fill="#000000" font-family="Verdana" font-size="12">Etape</text>
	<text x="266" y="51.8" fill="#000000" font-family="Verdana" font-size="12">id_etape</text>
	<line x1="266" y1="54" x2="319" y2="54" stroke="#000000" stroke-width="1"/>
	<text x="266" y="68.8" fill="#000000" font-family="Verdana" font-size="12">nom_etape</text>
	<text x="266" y="85.8" fill="#000000" font-family="Verdana" font-size="12">duree</text>
</g>

<!-- Entity Category -->
<g id="entity-Category">
	<g id="frame-Category">
		<rect x="768" y="17" width="104" height="25" fill="#80cdc1" stroke="#80cdc1" stroke-width="0"/>
		<rect x="768" y="42.0" width="104" height="43" fill="#c7eae5" stroke="#c7eae5" stroke-width="0"/>
		<rect x="768" y="17" width="104" height="68" fill="none" stroke="#35978f" stroke-width="2"/>
		<line x1="768" y1="42" x2="872" y2="42" stroke="#35978f" stroke-width="1"/>
	</g>
	<text x="792" y="34.7" fill="#000000" font-family="Verdana" font-size="12">Category</text>
	<text x="773" y="59.8" fill="#000000" font-family="Verdana" font-size="12">id_category</text>
	<line x1="773" y1="62" x2="845" y2="62" stroke="#000000" stroke-width="1"/>
	<text x="773" y="76.8" fill="#000000" font-family="Verdana" font-size="12">nom_category:</text>
</g>

<!-- Entity Utilisateur -->
<g id="entity-Utilisateur">
	<g id="frame-Utilisateur">
		<rect x="422" y="438" width="106" height="25" fill="#80cdc1" stroke="#80cdc1" stroke-width="0"/>
		<rect x="422" y="463.0" width="106" height="111" fill="#c7eae5" stroke="#c7eae5" stroke-width="0"/>
		<rect x="422" y="438" width="106" height="136" fill="none" stroke="#35978f" stroke-width="2"/>
		<line x1="422" y1="463" x2="528" y2="463" stroke="#35978f" stroke-width="1"/>
	</g>
	<text x="444" y="455.7" fill="#000000" font-family="Verdana" font-size="12">Utilisateur</text>
	<text x="427" y="480.7" fill="#000000" font-family="Verdana" font-size="12">id_user</text>
	<line x1="427" y1="483" x2="473" y2="483" stroke="#000000" stroke-width="1"/>
	<text x="427" y="497.7" fill="#000000" font-family="Verdana" font-size="12">login</text>
	<text x="427" y="514.8" fill="#000000" font-family="Verdana" font-size="12">prenom</text>
	<text x="427" y="531.8" fill="#000000" font-family="Verdana" font-size="12">nom</text>
	<text x="427" y="548.8" fill="#000000" font-family="Verdana" font-size="12">addresse_email</text>
	<text x="427" y="565.8" fill="#000000" font-family="Verdana" font-size="12">mdp</text>
</g>

<!-- Entity Recette -->
<g id="entity-Recette">
	<g id="frame-Recette">
		<rect x="257" y="193" width="88" height="25" fill="#80cdc1" stroke="#80cdc1" stroke-width="0"/>
		<rect x="257" y="218.0" width="88" height="111" fill="#c7eae5" stroke="#c7eae5" stroke-width="0"/>
		<rect x="257" y="193" width="88" height="136" fill="none" stroke="#35978f" stroke-width="2"/>
		<line x1="257" y1="218" x2="345" y2="218" stroke="#35978f" stroke-width="1"/>
	</g>
	<text x="277" y="210.7" fill="#000000" font-family="Verdana" font-size="12">Recette</text>
	<text x="262" y="235.7" fill="#000000" font-family="Verdana" font-size="12">id_recette</text>
	<line x1="262" y1="238" x2="324" y2="238" stroke="#000000" stroke-width="1"/>
	<text x="262" y="252.7" fill="#000000" font-family="Verdana" font-size="12">nom_recette</text>
	<text x="262" y="269.8" fill="#000000" font-family="Verdana" font-size="12">description</text>
	<text x="262" y="286.8" fill="#000000" font-family="Verdana" font-size="12">duree_total</text>
	<text x="262" y="303.8" fill="#000000" font-family="Verdana" font-size="12">prix</text>
	<text x="262" y="320.8" fill="#000000" font-family="Verdana" font-size="12">difficulte</text>
</g>

<!-- Entity ArchiveMenu -->
<g id="entity-ArchiveMenu">
	<g id="frame-ArchiveMenu">
		<rect x="239" y="599" width="124" height="25" fill="#80cdc1" stroke="#80cdc1" stroke-width="0"/>
		<rect x="239" y="624.0" width="124" height="59" fill="#c7eae5" stroke="#c7eae5" stroke-width="0"/>
		<rect x="239" y="599" width="124" height="84" fill="none" stroke="#35978f" stroke-width="2"/>
		<line x1="239" y1="624" x2="363" y2="624" stroke="#35978f" stroke-width="1"/>
	</g>
	<text x="262" y="616.7" fill="#000000" font-family="Verdana" font-size="12">ArchiveMenu</text>
	<text x="244" y="641.8" fill="#000000" font-family="Verdana" font-size="12">recette_id_recette</text>
	<line x1="244" y1="644" x2="356" y2="644" stroke="#000000" stroke-width="1"/>
	<text x="244" y="658.8" fill="#000000" font-family="Verdana" font-size="12">utilisateur_id_user</text>
	<text x="244" y="675.8" fill="#000000" font-family="Verdana" font-size="12">date</text>
</g>

<!-- Entity ArchiveListe -->
<g id="entity-ArchiveListe">
	<g id="frame-ArchiveListe">
		<rect x="587" y="599" width="160" height="25" fill="#80cdc1" stroke="#80cdc1" stroke-width="0"/>
		<rect x="587" y="624.0" width="160" height="59" fill="#c7eae5" stroke="#c7eae5" stroke-width="0"/>
		<rect x="587" y="599" width="160" height="84" fill="none" stroke="#35978f" stroke-width="2"/>
		<line x1="587" y1="624" x2="747" y2="624" stroke="#35978f" stroke-width="1"/>
	</g>
	<text x="630" y="616.7" fill="#000000" font-family="Verdana" font-size="12">ArchiveListe</text>
	<text x="592" y="641.8" fill="#000000" font-family="Verdana" font-size="12">ingrediant_id_ingrediant</text>
	<line x1="592" y1="644" x2="741" y2="644" stroke="#000000" stroke-width="1"/>
	<text x="592" y="658.8" fill="#000000" font-family="Verdana" font-size="12">utilisateur_id_user</text>
	<text x="592" y="675.8" fill="#000000" font-family="Verdana" font-size="12">date</text>
</g>

<!-- Entity Img_vid -->
<g id="entity-Img_vid">
	<g id="frame-Img_vid">
		<rect x="138" y="9" width="88" height="25" fill="#80cdc1" stroke="#80cdc1" stroke-width="0"/>
		<rect x="138" y="34.0" width="88" height="59" fill="#c7eae5" stroke="#c7eae5" stroke-width="0"/>
		<rect x="138" y="9" width="88" height="84" fill="none" stroke="#35978f" stroke-width="2"/>
		<line x1="138" y1="34" x2="226" y2="34" stroke="#35978f" stroke-width="1"/>
	</g>
	<text x="156" y="26.7" fill="#000000" font-family="Verdana" font-size="12">Img_vid</text>
	<text x="143" y="51.8" fill="#000000" font-family="Verdana" font-size="12">id_Img_vid</text>
	<line x1="143" y1="54" x2="212" y2="54" stroke="#000000" stroke-width="1"/>
	<text x="143" y="68.8" fill="#000000" font-family="Verdana" font-size="12">img_vid_link</text>
	<text x="143" y="85.8" fill="#000000" font-family="Verdana" font-size="12">img_or_vid</text>
</g>

<!-- Entity ArchiveDispose -->
<g id="entity-ArchiveDispose">
	<g id="frame-ArchiveDispose">
		<rect x="395" y="599" width="160" height="25" fill="#80cdc1" stroke="#80cdc1" stroke-width="0"/>
		<rect x="395" y="624.0" width="160" height="59" fill="#c7eae5" stroke="#c7eae5" stroke-width="0"/>
		<rect x="395" y="599" width="160" height="84" fill="none" stroke="#35978f" stroke-width="2"/>
		<line x1="395" y1="624" x2="555" y2="624" stroke="#35978f" stroke-width="1"/>
	</g>
	<text x="428" y="616.7" fill="#000000" font-family="Verdana" font-size="12">ArchiveDispose</text>
	<text x="400" y="641.8" fill="#000000" font-family="Verdana" font-size="12">ingrediant_id_ingrediant</text>
	<line x1="400" y1="644" x2="549" y2="644" stroke="#000000" stroke-width="1"/>
	<text x="400" y="658.8" fill="#000000" font-family="Verdana" font-size="12">utilisateur_id_user</text>
	<text x="400" y="675.8" fill="#000000" font-family="Verdana" font-size="12">date</text>
</g>

<!-- Entity Qualite -->
<g id="entity-Qualite">
	<g id="frame-Qualite">
		<rect x="9" y="202" width="108" height="25" fill="#80cdc1" stroke="#80cdc1" stroke-width="0"/>
		<rect x="9" y="227.0" width="108" height="93" fill="#c7eae5" stroke="#c7eae5" stroke-width="0"/>
		<rect x="9" y="202" width="108" height="118" fill="none" stroke="#35978f" stroke-width="2"/>
		<line x1="9" y1="227" x2="117" y2="227" stroke="#35978f" stroke-width="1"/>
	</g>
	<text x="41" y="219.7" fill="#000000" font-family="Verdana" font-size="12">Qualite</text>
	<text x="14" y="244.7" fill="#000000" font-family="Verdana" font-size="12">id_qualite</text>
	<line x1="14" y1="247" x2="74" y2="247" style="fill:none;stroke:#000000;stroke-width:1;stroke-dasharray:4;"/>
	<text x="14" y="261.8" fill="#000000" font-family="Verdana" font-size="12">qualite_calories</text>
	<text x="14" y="278.8" fill="#000000" font-family="Verdana" font-size="12">qualite_lipides</text>
	<text x="14" y="295.8" fill="#000000" font-family="Verdana" font-size="12">qualite_glucides</text>
	<text x="14" y="312.8" fill="#000000" font-family="Verdana" font-size="12">qualite_protides</text>
</g>

<!-- Entity Ingredient -->
<g id="entity-Ingredient">
	<g id="frame-Ingredient">
		<rect x="614" y="210" width="106" height="25" fill="#80cdc1" stroke="#80cdc1" stroke-width="0"/>
		<rect x="614" y="235.0" width="106" height="77" fill="#c7eae5" stroke="#c7eae5" stroke-width="0"/>
		<rect x="614" y="210" width="106" height="102" fill="none" stroke="#35978f" stroke-width="2"/>
		<line x1="614" y1="235" x2="720" y2="235" stroke="#35978f" stroke-width="1"/>
	</g>
	<text x="635" y="227.7" fill="#000000" font-family="Verdana" font-size="12">Ingredient</text>
	<text x="619" y="252.7" fill="#000000" font-family="Verdana" font-size="12">id_ingredient</text>
	<line x1="619" y1="255" x2="699" y2="255" style="fill:none;stroke:#000000;stroke-width:1;stroke-dasharray:4;"/>
	<text x="619" y="269.8" fill="#000000" font-family="Verdana" font-size="12">nom_ingredient</text>
	<text x="619" y="286.8" fill="#000000" font-family="Verdana" font-size="12">type</text>
	<text x="619" y="303.8" fill="#000000" font-family="Verdana" font-size="12">qualite:</text>
</g>

<!-- Entity Regime -->
<g id="entity-Regime">
	<g id="frame-Regime">
		<rect x="623" y="17" width="88" height="25" fill="#80cdc1" stroke="#80cdc1" stroke-width="0"/>
		<rect x="623" y="42.0" width="88" height="43" fill="#c7eae5" stroke="#c7eae5" stroke-width="0"/>
		<rect x="623" y="17" width="88" height="68" fill="none" stroke="#35978f" stroke-width="2"/>
		<line x1="623" y1="42" x2="711" y2="42" stroke="#35978f" stroke-width="1"/>
	</g>
	<text x="644" y="34.7" fill="#000000" font-family="Verdana" font-size="12">Regime</text>
	<text x="628" y="59.8" fill="#000000" font-family="Verdana" font-size="12">id_regime</text>
	<line x1="628" y1="62" x2="689" y2="62" stroke="#000000" stroke-width="1"/>
	<text x="628" y="76.8" fill="#000000" font-family="Verdana" font-size="12">nom_regime</text>
</g>
</svg>